<?xml version="1.0" standalone="no"?>
<!DOCTYPE svg PUBLIC "-//W3C//DTD SVG 20010904//EN"
 "http://www.w3.org/TR/2001/REC-SVG-20010904/DTD/svg10.dtd">
<svg version="1.0" xmlns="http://www.w3.org/2000/svg"
 width="256.000000pt" height="256.000000pt" viewBox="0 0 256.000000 256.000000"
 preserveAspectRatio="xMidYMid meet">
<metadata>
Created by potrace 1.14, written by Peter Selinger 2001-2017
</metadata>
<g transform="translate(0.000000,256.000000) scale(0.100000,-0.100000)"
fill="#000000" stroke="none">
<path d="M1231 2523 l-27 -28 2 -172 c2 -222 0 -210 28 -228 40 -27 65 -26 97
3 l30 27 0 140 c0 238 1 230 -26 259 -32 34 -69 34 -104 -1z"/>
<path d="M385 2175 c-29 -28 -32 -61 -8 -95 9 -14 70 -78 135 -142 99 -98 124
-118 149 -118 40 0 79 39 79 80 0 26 -20 51 -135 165 -114 114 -140 135 -165
135 -19 0 -40 -9 -55 -25z"/>
<path d="M1974 2079 c-69 -68 -132 -136 -140 -151 -26 -49 12 -107 70 -108 24
0 52 22 163 132 122 121 133 135 133 168 0 43 -22 67 -68 76 -31 6 -39 0 -158
-117z"/>
<path d="M1170 1903 c-59 -10 -153 -47 -216 -85 -136 -80 -254 -241 -290 -396
-18 -79 -17 -224 3 -301 74 -285 338 -485 628 -476 115 4 172 17 261 61 170
84 284 221 342 408 20 68 20 251 -1 329 -58 213 -244 395 -458 450 -53 14
-216 20 -269 10z"/>
<path d="M62 1349 c-36 -14 -55 -46 -48 -84 12 -61 30 -66 238 -66 l183 1 27
30 c17 18 25 37 23 51 -7 36 -34 69 -58 70 -82 5 -351 3 -365 -2z"/>
<path d="M2127 1345 c-31 -15 -51 -57 -43 -88 13 -52 36 -57 236 -58 175 0
184 1 206 22 29 28 32 77 5 110 -18 22 -23 23 -201 24 -109 0 -191 -3 -203
-10z"/>
<path d="M634 725 c-43 -18 -274 -258 -274 -285 0 -32 17 -58 48 -74 23 -12
32 -12 57 -1 44 19 275 257 275 283 0 62 -52 100 -106 77z"/>
<path d="M1873 725 c-40 -17 -57 -62 -37 -100 19 -36 239 -254 267 -264 28
-10 74 6 87 29 6 10 10 33 10 49 0 27 -19 51 -129 160 -70 70 -137 130 -148
133 -11 3 -34 0 -50 -7z"/>
<path d="M1230 455 c-25 -26 -25 -28 -25 -215 0 -167 2 -190 18 -208 35 -39
93 -33 122 12 16 24 19 78 16 332 -1 63 -22 92 -71 100 -29 5 -39 1 -60 -21z"/>
</g>
</svg>
